<svg viewBox="0 0 290 136"  xmlns="http://www.w3.org/2000/svg">
        <path d="M242.8 50.9006C243.083 52.0317 243.224 53.4456 243.224 55.1423C243.224 56.7683 243.083 58.1822 242.8 59.384H217.308C217.025 58.1822 216.883 56.7683 216.883 55.1423C216.883 53.4456 217.025 52.0317 217.308 50.9006H225.805C225.522 49.6988 225.381 48.2849 225.381 46.6589C225.381 44.9622 225.522 43.5483 225.805 42.4172C225.522 41.2153 225.381 39.8014 225.381 38.1754C225.381 36.4788 225.522 35.0648 225.805 33.9337C225.522 32.7319 225.381 31.318 225.381 29.692C225.381 27.9953 225.522 26.5814 225.805 25.4503C225.522 24.2485 225.381 22.8346 225.381 21.2086C225.381 19.5119 225.522 18.098 225.805 16.9669C225.522 15.765 225.381 14.3511 225.381 12.7251C225.381 11.0285 225.522 9.61455 225.805 8.48343H219.433C219.149 7.28161 219.008 5.8677 219.008 4.24171C219.008 2.54503 219.149 1.13112 219.433 0H234.303C234.586 1.13112 234.727 2.54503 234.727 4.24171C234.727 5.8677 234.586 7.28161 234.303 8.48343C234.586 9.61455 234.727 11.0285 234.727 12.7251C234.727 14.3511 234.586 15.765 234.303 16.9669C234.586 18.098 234.727 19.5119 234.727 21.2086C234.727 22.8346 234.586 24.2485 234.303 25.4503C234.586 26.5814 234.727 27.9953 234.727 29.692C234.727 31.318 234.586 32.7319 234.303 33.9337C234.586 35.0648 234.727 36.4788 234.727 38.1754C234.727 39.8014 234.586 41.2153 234.303 42.4172C234.586 43.5483 234.727 44.9622 234.727 46.6589C234.727 48.2849 234.586 49.6988 234.303 50.9006H242.8Z" fill="#95C2E4" />
        <path d="M204.946 38.1754C204.946 39.8014 204.804 41.2153 204.521 42.4172H201.335C201.618 43.5483 201.76 44.9622 201.76 46.6589C201.76 48.2849 201.618 49.6988 201.335 50.9006H196.024C196.307 52.0317 196.449 53.4456 196.449 55.1423C196.449 56.7683 196.307 58.1822 196.024 59.384H179.03C178.747 58.1822 178.605 56.7683 178.605 55.1423C178.605 53.4456 178.747 52.0317 179.03 50.9006H173.719C173.436 49.6988 173.294 48.2849 173.294 46.6589C173.294 44.9622 173.436 43.5483 173.719 42.4172H170.533C170.25 41.2153 170.108 39.8014 170.108 38.1754C170.108 36.4788 170.25 35.0649 170.533 33.9337H173.719C173.436 32.7319 173.294 31.318 173.294 29.692C173.294 27.9953 173.436 26.5814 173.719 25.4503H179.03C178.747 24.2485 178.605 22.8346 178.605 21.2086C178.605 19.5119 178.747 18.098 179.03 16.9669H196.024C196.307 18.098 196.449 19.5119 196.449 21.2086C196.449 22.8346 196.307 24.2485 196.024 25.4503H201.335C201.618 26.5814 201.76 27.9953 201.76 29.692C201.76 31.318 201.618 32.7319 201.335 33.9337H204.521C204.804 35.0649 204.946 36.4788 204.946 38.1754ZM196.024 42.4172C195.741 41.2153 195.599 39.8014 195.599 38.1754C195.599 36.4788 195.741 35.0649 196.024 33.9337H192.838C192.554 32.7319 192.413 31.318 192.413 29.692C192.413 27.9953 192.554 26.5814 192.838 25.4503H182.216C182.5 26.5814 182.641 27.9953 182.641 29.692C182.641 31.318 182.5 32.7319 182.216 33.9337H179.03C179.313 35.0649 179.455 36.4788 179.455 38.1754C179.455 39.8014 179.313 41.2153 179.03 42.4172H182.216C182.5 43.5483 182.641 44.9622 182.641 46.6589C182.641 48.2849 182.5 49.6988 182.216 50.9006H192.838C192.554 49.6988 192.413 48.2849 192.413 46.6589C192.413 44.9622 192.554 43.5483 192.838 42.4172H196.024Z" fill="#95C2E4" />
        <path d="M156.046 29.692C156.046 31.318 155.905 32.7319 155.621 33.9337H147.124C146.841 32.7319 146.699 31.318 146.699 29.692C146.699 27.9953 146.841 26.5814 147.124 25.4503H130.13C129.847 24.2485 129.705 22.8346 129.705 21.2086C129.705 19.5119 129.847 18.098 130.13 16.9669H159.87C160.153 18.098 160.295 19.5119 160.295 21.2086C160.295 22.8346 160.153 24.2485 159.87 25.4503H155.621C155.905 26.5814 156.046 27.9953 156.046 29.692ZM147.549 38.1754C147.549 39.8014 147.408 41.2153 147.124 42.4172H138.627C138.344 41.2153 138.202 39.8014 138.202 38.1754C138.202 36.4788 138.344 35.0649 138.627 33.9337H147.124C147.408 35.0649 147.549 36.4788 147.549 38.1754ZM159.87 50.9006C160.153 52.0317 160.295 53.4456 160.295 55.1423C160.295 56.7683 160.153 58.1822 159.87 59.384H130.13C129.847 58.1822 129.705 56.7683 129.705 55.1423C129.705 53.4456 129.847 52.0317 130.13 50.9006C129.847 49.6988 129.705 48.2849 129.705 46.6589C129.705 44.9622 129.847 43.5483 130.13 42.4172H138.627C138.91 43.5483 139.052 44.9622 139.052 46.6589C139.052 48.2849 138.91 49.6988 138.627 50.9006H159.87Z" fill="#95C2E4" />
        <path d="M93.3386 21.2086C93.3386 22.8346 93.197 24.2485 92.9138 25.4503H97.1623C97.4456 26.5814 97.5872 27.9953 97.5872 29.692C97.5872 31.318 97.4456 32.7319 97.1623 33.9337H93.9759C94.2592 35.0649 94.4008 36.4788 94.4008 38.1754C94.4008 39.8014 94.2592 41.2153 93.9759 42.4172C94.2592 43.5483 94.4008 44.9622 94.4008 46.6589C94.4008 48.2849 94.2592 49.6988 93.9759 50.9006C94.2592 52.0317 94.4008 53.4456 94.4008 55.1423C94.4008 56.7683 94.2592 58.1822 93.9759 59.384H85.4788C85.1956 58.1822 85.054 56.7683 85.054 55.1423C85.054 53.4456 85.1956 52.0317 85.4788 50.9006C85.1956 49.6988 85.054 48.2849 85.054 46.6589C85.054 44.9622 85.1956 43.5483 85.4788 42.4172C85.1956 41.2153 85.054 39.8014 85.054 38.1754C85.054 36.4788 85.1956 35.0649 85.4788 33.9337C85.1956 32.7319 85.054 31.318 85.054 29.692C85.054 27.9953 85.1956 26.5814 85.4788 25.4503C85.1956 24.2485 85.054 22.8346 85.054 21.2086C85.054 19.5119 85.1956 18.098 85.4788 16.9669H92.9138C93.197 18.098 93.3386 19.5119 93.3386 21.2086ZM119.467 33.9337C119.75 35.0649 119.892 36.4788 119.892 38.1754C119.892 39.8014 119.75 41.2153 119.467 42.4172C119.75 43.5483 119.892 44.9622 119.892 46.6589C119.892 48.2849 119.75 49.6988 119.467 50.9006C119.75 52.0317 119.892 53.4456 119.892 55.1423C119.892 56.7683 119.75 58.1822 119.467 59.384H110.97C110.687 58.1822 110.545 56.7683 110.545 55.1423C110.545 53.4456 110.687 52.0317 110.97 50.9006C110.687 49.6988 110.545 48.2849 110.545 46.6589C110.545 44.9622 110.687 43.5483 110.97 42.4172C110.687 41.2153 110.545 39.8014 110.545 38.1754C110.545 36.4788 110.687 35.0649 110.97 33.9337C110.687 32.7319 110.545 31.318 110.545 29.692C110.545 27.9953 110.687 26.5814 110.97 25.4503H97.1623C96.8791 24.2485 96.7375 22.8346 96.7375 21.2086C96.7375 19.5119 96.8791 18.098 97.1623 16.9669H114.157C114.44 18.098 114.581 19.5119 114.581 21.2086C114.581 22.8346 114.44 24.2485 114.157 25.4503H119.467C119.75 26.5814 119.892 27.9953 119.892 29.692C119.892 31.318 119.75 32.7319 119.467 33.9337Z" fill="#95C2E4" />
        <path d="M77.3651 38.1754C77.3651 39.8014 77.2235 41.2153 76.9402 42.4172H73.7538C74.0371 43.5483 74.1787 44.9622 74.1787 46.6589C74.1787 48.2849 74.0371 49.6988 73.7538 50.9006H68.4431C68.7264 52.0317 68.868 53.4456 68.868 55.1423C68.868 56.7683 68.7264 58.1822 68.4431 59.384H51.4489C51.1657 58.1822 51.0241 56.7683 51.0241 55.1423C51.0241 53.4456 51.1657 52.0317 51.4489 50.9006H46.1382C45.855 49.6988 45.7134 48.2849 45.7134 46.6589C45.7134 44.9622 45.855 43.5483 46.1382 42.4172H42.9518C42.6686 41.2153 42.527 39.8014 42.527 38.1754C42.527 36.4788 42.6686 35.0649 42.9518 33.9337H46.1382C45.855 32.7319 45.7134 31.318 45.7134 29.692C45.7134 27.9953 45.855 26.5814 46.1382 25.4503H51.4489C51.1657 24.2485 51.0241 22.8346 51.0241 21.2086C51.0241 19.5119 51.1657 18.098 51.4489 16.9669H68.4431C68.7264 18.098 68.868 19.5119 68.868 21.2086C68.868 22.8346 68.7264 24.2485 68.4431 25.4503H73.7538C74.0371 26.5814 74.1787 27.9953 74.1787 29.692C74.1787 31.318 74.0371 32.7319 73.7538 33.9337H76.9402C77.2235 35.0649 77.3651 36.4788 77.3651 38.1754ZM68.4431 42.4172C68.1599 41.2153 68.0183 39.8014 68.0183 38.1754C68.0183 36.4788 68.1599 35.0649 68.4431 33.9337H65.2567C64.9735 32.7319 64.8319 31.318 64.8319 29.692C64.8319 27.9953 64.9735 26.5814 65.2567 25.4503H54.6353C54.9186 26.5814 55.0602 27.9953 55.0602 29.692C55.0602 31.318 54.9186 32.7319 54.6353 33.9337H51.4489C51.7322 35.0649 51.8738 36.4788 51.8738 38.1754C51.8738 39.8014 51.7322 41.2153 51.4489 42.4172H54.6353C54.9186 43.5483 55.0602 44.9622 55.0602 46.6589C55.0602 48.2849 54.9186 49.6988 54.6353 50.9006H65.2567C64.9735 49.6988 64.8319 48.2849 64.8319 46.6589C64.8319 44.9622 64.9735 43.5483 65.2567 42.4172H68.4431Z" fill="#95C2E4" />
        <path d="M34.4132 50.9006C34.6965 52.0317 34.8381 53.4456 34.8381 55.1423C34.8381 56.7683 34.6965 58.1822 34.4132 59.384H25.9162C25.6329 58.1822 25.4913 56.7683 25.4913 55.1423C25.4913 53.4456 25.6329 52.0317 25.9162 50.9006H22.7297C22.4465 49.6988 22.3049 48.2849 22.3049 46.6589C22.3049 44.9622 22.4465 43.5483 22.7297 42.4172H16.3569C16.0737 41.2153 15.9321 39.8014 15.9321 38.1754C15.9321 36.4788 16.0737 35.0648 16.3569 33.9337H8.92195C9.20519 35.0648 9.34681 36.4788 9.34681 38.1754C9.34681 39.8014 9.20519 41.2153 8.92195 42.4172C9.20519 43.5483 9.34681 44.9622 9.34681 46.6589C9.34681 48.2849 9.20519 49.6988 8.92195 50.9006C9.20519 52.0317 9.34681 53.4456 9.34681 55.1423C9.34681 56.7683 9.20519 58.1822 8.92195 59.384H0.424855C0.141618 58.1822 0 56.7683 0 55.1423C0 53.4456 0.141618 52.0317 0.424855 50.9006C0.141618 49.6988 0 48.2849 0 46.6589C0 44.9622 0.141618 43.5483 0.424855 42.4172C0.141618 41.2153 0 39.8014 0 38.1754C0 36.4788 0.141618 35.0648 0.424855 33.9337C0.141618 32.7319 0 31.318 0 29.692C0 27.9953 0.141618 26.5814 0.424855 25.4503C0.141618 24.2485 0 22.8346 0 21.2086C0 19.5119 0.141618 18.098 0.424855 16.9669C0.141618 15.765 0 14.3511 0 12.7251C0 11.0285 0.141618 9.61455 0.424855 8.48343C0.141618 7.28161 0 5.8677 0 4.24171C0 2.54503 0.141618 1.13112 0.424855 0H8.92195C9.20519 1.13112 9.34681 2.54503 9.34681 4.24171C9.34681 5.8677 9.20519 7.28161 8.92195 8.48343C9.20519 9.61455 9.34681 11.0285 9.34681 12.7251C9.34681 14.3511 9.20519 15.765 8.92195 16.9669C9.20519 18.098 9.34681 19.5119 9.34681 21.2086C9.34681 22.8346 9.20519 24.2485 8.92195 25.4503H16.3569C16.0737 24.2485 15.9321 22.8346 15.9321 21.2086C15.9321 19.5119 16.0737 18.098 16.3569 16.9669H22.7297C22.4465 15.765 22.3049 14.3511 22.3049 12.7251C22.3049 11.0285 22.4465 9.61455 22.7297 8.48343H25.9162C25.6329 7.28161 25.4913 5.8677 25.4913 4.24171C25.4913 2.54503 25.6329 1.13112 25.9162 0H34.4132C34.6965 1.13112 34.8381 2.54503 34.8381 4.24171C34.8381 5.8677 34.6965 7.28161 34.4132 8.48343H31.2268C31.5101 9.61455 31.6517 11.0285 31.6517 12.7251C31.6517 14.3511 31.5101 15.765 31.2268 16.9669H24.854C25.1373 18.098 25.2789 19.5119 25.2789 21.2086C25.2789 22.8346 25.1373 24.2485 24.854 25.4503H19.5433C19.8266 26.5814 19.9682 27.9953 19.9682 29.692C19.9682 31.318 19.8266 32.7319 19.5433 33.9337H24.854C25.1373 35.0648 25.2789 36.4788 25.2789 38.1754C25.2789 39.8014 25.1373 41.2153 24.854 42.4172H31.2268C31.5101 43.5483 31.6517 44.9622 31.6517 46.6589C31.6517 48.2849 31.5101 49.6988 31.2268 50.9006H34.4132Z" fill="#95C2E4" />
        <path d="M290 97.8246C290 99.4506 289.858 100.864 289.575 102.066H285.327C285.61 103.197 285.751 104.611 285.751 106.308C285.751 107.934 285.61 109.348 285.327 110.55H281.078C281.361 111.681 281.503 113.095 281.503 114.791C281.503 116.417 281.361 117.831 281.078 119.033H264.084C264.367 120.164 264.509 121.578 264.509 123.275C264.509 124.901 264.367 126.315 264.084 127.517C264.367 128.648 264.509 130.062 264.509 131.758C264.509 133.384 264.367 134.798 264.084 136H255.587C255.304 134.798 255.162 133.384 255.162 131.758C255.162 130.062 255.304 128.648 255.587 127.517C255.304 126.315 255.162 124.901 255.162 123.275C255.162 121.578 255.304 120.164 255.587 119.033C255.304 117.831 255.162 116.417 255.162 114.791C255.162 113.095 255.304 111.681 255.587 110.55C255.304 109.348 255.162 107.934 255.162 106.308C255.162 104.611 255.304 103.197 255.587 102.066C255.304 100.864 255.162 99.4506 255.162 97.8246C255.162 96.1279 255.304 94.714 255.587 93.5829C255.304 92.381 255.162 90.9671 255.162 89.3411C255.162 87.6445 255.304 86.2305 255.587 85.0994C255.304 83.8976 255.162 82.4837 255.162 80.8577C255.162 79.161 255.304 77.7471 255.587 76.616H264.084C264.367 77.7471 264.509 79.161 264.509 80.8577C264.509 82.4837 264.367 83.8976 264.084 85.0994H268.332C268.616 86.2305 268.757 87.6445 268.757 89.3411C268.757 90.9671 268.616 92.381 268.332 93.5829H264.084C264.367 94.714 264.509 96.1279 264.509 97.8246C264.509 99.4506 264.367 100.864 264.084 102.066C264.367 103.197 264.509 104.611 264.509 106.308C264.509 107.934 264.367 109.348 264.084 110.55H276.829C276.546 109.348 276.405 107.934 276.405 106.308C276.405 104.611 276.546 103.197 276.829 102.066H281.078C280.795 100.864 280.653 99.4506 280.653 97.8246C280.653 96.1279 280.795 94.714 281.078 93.5829H276.829C276.546 92.381 276.405 90.9671 276.405 89.3411C276.405 87.6445 276.546 86.2305 276.829 85.0994H268.332C268.049 83.8976 267.908 82.4837 267.908 80.8577C267.908 79.161 268.049 77.7471 268.332 76.616H281.078C281.361 77.7471 281.503 79.161 281.503 80.8577C281.503 82.4837 281.361 83.8976 281.078 85.0994H285.327C285.61 86.2305 285.751 87.6445 285.751 89.3411C285.751 90.9671 285.61 92.381 285.327 93.5829H289.575C289.858 94.714 290 96.1279 290 97.8246Z" fill="#164265" />
        <path d="M247.473 97.8246C247.473 99.4506 247.331 100.864 247.048 102.066H243.862C244.145 103.197 244.287 104.611 244.287 106.308C244.287 107.934 244.145 109.348 243.862 110.55H238.551C238.834 111.681 238.976 113.095 238.976 114.791C238.976 116.417 238.834 117.831 238.551 119.033H221.557C221.274 117.831 221.132 116.417 221.132 114.791C221.132 113.095 221.274 111.681 221.557 110.55H216.246C215.963 109.348 215.821 107.934 215.821 106.308C215.821 104.611 215.963 103.197 216.246 102.066H213.06C212.777 100.864 212.635 99.4506 212.635 97.8246C212.635 96.1279 212.777 94.714 213.06 93.5829H216.246C215.963 92.381 215.821 90.9671 215.821 89.3411C215.821 87.6445 215.963 86.2305 216.246 85.0994H221.557C221.274 83.8976 221.132 82.4837 221.132 80.8577C221.132 79.161 221.274 77.7471 221.557 76.616H238.551C238.834 77.7471 238.976 79.161 238.976 80.8577C238.976 82.4837 238.834 83.8976 238.551 85.0994H243.862C244.145 86.2305 244.287 87.6445 244.287 89.3411C244.287 90.9671 244.145 92.381 243.862 93.5829H247.048C247.331 94.714 247.473 96.1279 247.473 97.8246ZM238.551 102.066C238.268 100.864 238.126 99.4506 238.126 97.8246C238.126 96.1279 238.268 94.714 238.551 93.5829H235.365C235.081 92.381 234.94 90.9671 234.94 89.3411C234.94 87.6445 235.081 86.2305 235.365 85.0994H224.743C225.027 86.2305 225.168 87.6445 225.168 89.3411C225.168 90.9671 225.027 92.381 224.743 93.5829H221.557C221.84 94.714 221.982 96.1279 221.982 97.8246C221.982 99.4506 221.84 100.864 221.557 102.066H224.743C225.027 103.197 225.168 104.611 225.168 106.308C225.168 107.934 225.027 109.348 224.743 110.55H235.365C235.081 109.348 234.94 107.934 234.94 106.308C234.94 104.611 235.081 103.197 235.365 102.066H238.551Z" fill="#164265" />
        <path d="M179.455 80.8577C179.455 82.4837 179.313 83.8976 179.03 85.0994H182.216C182.5 86.2305 182.641 87.6445 182.641 89.3411C182.641 90.9671 182.5 92.381 182.216 93.5829H179.03C179.313 94.714 179.455 96.1279 179.455 97.8246C179.455 99.4506 179.313 100.864 179.03 102.066C179.313 103.197 179.455 104.611 179.455 106.308C179.455 107.934 179.313 109.348 179.03 110.55C179.313 111.681 179.455 113.095 179.455 114.791C179.455 116.417 179.313 117.831 179.03 119.033H170.533C170.25 117.831 170.108 116.417 170.108 114.791C170.108 113.095 170.25 111.681 170.533 110.55C170.25 109.348 170.108 107.934 170.108 106.308C170.108 104.611 170.25 103.197 170.533 102.066C170.25 100.864 170.108 99.4506 170.108 97.8246C170.108 96.1279 170.25 94.714 170.533 93.5829C170.25 92.381 170.108 90.9671 170.108 89.3411C170.108 87.6445 170.25 86.2305 170.533 85.0994C170.25 83.8976 170.108 82.4837 170.108 80.8577C170.108 79.161 170.25 77.7471 170.533 76.616C170.25 75.4142 170.108 74.0003 170.108 72.3743C170.108 70.6776 170.25 69.2637 170.533 68.1326C170.25 66.9307 170.108 65.5168 170.108 63.8908C170.108 62.1942 170.25 60.7803 170.533 59.6491H179.03C179.313 60.7803 179.455 62.1942 179.455 63.8908C179.455 65.5168 179.313 66.9307 179.03 68.1326C179.313 69.2637 179.455 70.6776 179.455 72.3743C179.455 74.0003 179.313 75.4142 179.03 76.616C179.313 77.7471 179.455 79.161 179.455 80.8577ZM204.521 93.5829C204.804 94.714 204.946 96.1279 204.946 97.8246C204.946 99.4506 204.804 100.864 204.521 102.066C204.804 103.197 204.946 104.611 204.946 106.308C204.946 107.934 204.804 109.348 204.521 110.55C204.804 111.681 204.946 113.095 204.946 114.791C204.946 116.417 204.804 117.831 204.521 119.033H196.024C195.741 117.831 195.599 116.417 195.599 114.791C195.599 113.095 195.741 111.681 196.024 110.55C195.741 109.348 195.599 107.934 195.599 106.308C195.599 104.611 195.741 103.197 196.024 102.066C195.741 100.864 195.599 99.4506 195.599 97.8246C195.599 96.1279 195.741 94.714 196.024 93.5829C195.741 92.381 195.599 90.9671 195.599 89.3411C195.599 87.6445 195.741 86.2305 196.024 85.0994H182.216C181.933 83.8976 181.791 82.4837 181.791 80.8577C181.791 79.161 181.933 77.7471 182.216 76.616H199.21C199.494 77.7471 199.635 79.161 199.635 80.8577C199.635 82.4837 199.494 83.8976 199.21 85.0994H204.521C204.804 86.2305 204.946 87.6445 204.946 89.3411C204.946 90.9671 204.804 92.381 204.521 93.5829Z" fill="#164265" />
        <path d="M160.295 106.308C160.295 107.934 160.153 109.348 159.87 110.55H155.621C155.905 111.681 156.046 113.095 156.046 114.791C156.046 116.417 155.905 117.831 155.621 119.033H132.254C131.971 117.831 131.829 116.417 131.829 114.791C131.829 113.095 131.971 111.681 132.254 110.55H151.373C151.09 109.348 150.948 107.934 150.948 106.308C150.948 104.611 151.09 103.197 151.373 102.066H134.379C134.095 100.864 133.954 99.4506 133.954 97.8246C133.954 96.1279 134.095 94.714 134.379 93.5829H130.13C129.847 92.381 129.705 90.9671 129.705 89.3411C129.705 87.6445 129.847 86.2305 130.13 85.0994H134.379C134.095 83.8976 133.954 82.4837 133.954 80.8577C133.954 79.161 134.095 77.7471 134.379 76.616H157.746C158.029 77.7471 158.171 79.161 158.171 80.8577C158.171 82.4837 158.029 83.8976 157.746 85.0994H138.627C138.91 86.2305 139.052 87.6445 139.052 89.3411C139.052 90.9671 138.91 92.381 138.627 93.5829H155.621C155.905 94.714 156.046 96.1279 156.046 97.8246C156.046 99.4506 155.905 100.864 155.621 102.066H159.87C160.153 103.197 160.295 104.611 160.295 106.308Z" fill="#164265" />
        <path d="M93.9759 102.066C94.2592 103.197 94.4008 104.611 94.4008 106.308C94.4008 107.934 94.2592 109.348 93.9759 110.55H89.7274C90.0106 111.681 90.1522 113.095 90.1522 114.791C90.1522 116.417 90.0106 117.831 89.7274 119.033H85.4788C85.1956 117.831 85.054 116.417 85.054 114.791C85.054 113.095 85.1956 111.681 85.4788 110.55C85.1956 109.348 85.054 107.934 85.054 106.308C85.054 104.611 85.1956 103.197 85.4788 102.066C85.1956 100.864 85.054 99.4506 85.054 97.8246C85.054 96.1279 85.1956 94.714 85.4788 93.5829C85.1956 92.381 85.054 90.9671 85.054 89.3411C85.054 87.6445 85.1956 86.2305 85.4788 85.0994C85.1956 83.8976 85.054 82.4837 85.054 80.8577C85.054 79.161 85.1956 77.7471 85.4788 76.616C85.1956 75.4142 85.054 74.0003 85.054 72.3743C85.054 70.6776 85.1956 69.2637 85.4788 68.1326C85.1956 66.9307 85.054 65.5168 85.054 63.8908C85.054 62.1942 85.1956 60.7803 85.4788 59.6491H93.9759C94.2592 60.7803 94.4008 62.1942 94.4008 63.8908C94.4008 65.5168 94.2592 66.9307 93.9759 68.1326C94.2592 69.2637 94.4008 70.6776 94.4008 72.3743C94.4008 74.0003 94.2592 75.4142 93.9759 76.616C94.2592 77.7471 94.4008 79.161 94.4008 80.8577C94.4008 82.4837 94.2592 83.8976 93.9759 85.0994H98.2245C98.5077 86.2305 98.6493 87.6445 98.6493 89.3411C98.6493 90.9671 98.5077 92.381 98.2245 93.5829H93.9759C94.2592 94.714 94.4008 96.1279 94.4008 97.8246C94.4008 99.4506 94.2592 100.864 93.9759 102.066ZM119.892 97.8246C119.892 99.4506 119.75 100.864 119.467 102.066H115.219C115.502 103.197 115.644 104.611 115.644 106.308C115.644 107.934 115.502 109.348 115.219 110.55H106.722C106.438 109.348 106.297 107.934 106.297 106.308C106.297 104.611 106.438 103.197 106.722 102.066H110.97C110.687 100.864 110.545 99.4506 110.545 97.8246C110.545 96.1279 110.687 94.714 110.97 93.5829H106.722C106.438 92.381 106.297 90.9671 106.297 89.3411C106.297 87.6445 106.438 86.2305 106.722 85.0994H98.2245C97.9412 83.8976 97.7996 82.4837 97.7996 80.8577C97.7996 79.161 97.9412 77.7471 98.2245 76.616H110.97C111.253 77.7471 111.395 79.161 111.395 80.8577C111.395 82.4837 111.253 83.8976 110.97 85.0994H115.219C115.502 86.2305 115.644 87.6445 115.644 89.3411C115.644 90.9671 115.502 92.381 115.219 93.5829H119.467C119.75 94.714 119.892 96.1279 119.892 97.8246ZM93.5511 114.791C93.5511 113.095 93.6927 111.681 93.9759 110.55H106.722C107.005 111.681 107.146 113.095 107.146 114.791C107.146 116.417 107.005 117.831 106.722 119.033H93.9759C93.6927 117.831 93.5511 116.417 93.5511 114.791Z" fill="#164265" />
        <path d="M77.3651 89.3411C77.3651 90.9671 77.2235 92.381 76.9402 93.5829C77.2235 94.714 77.3651 96.1279 77.3651 97.8246C77.3651 99.4506 77.2235 100.864 76.9402 102.066H54.6353C54.9186 103.197 55.0602 104.611 55.0602 106.308C55.0602 107.934 54.9186 109.348 54.6353 110.55H72.6917C72.9749 111.681 73.1165 113.095 73.1165 114.791C73.1165 116.417 72.9749 117.831 72.6917 119.033H51.4489C51.1657 117.831 51.0241 116.417 51.0241 114.791C51.0241 113.095 51.1657 111.681 51.4489 110.55H46.1382C45.855 109.348 45.7134 107.934 45.7134 106.308C45.7134 104.611 45.855 103.197 46.1382 102.066H42.9518C42.6686 100.864 42.527 99.4506 42.527 97.8246C42.527 96.1279 42.6686 94.714 42.9518 93.5829H46.1382C45.855 92.381 45.7134 90.9671 45.7134 89.3411C45.7134 87.6445 45.855 86.2305 46.1382 85.0994H51.4489C51.1657 83.8976 51.0241 82.4837 51.0241 80.8577C51.0241 79.161 51.1657 77.7471 51.4489 76.616H72.6917C72.9749 77.7471 73.1165 79.161 73.1165 80.8577C73.1165 82.4837 72.9749 83.8976 72.6917 85.0994H76.9402C77.2235 86.2305 77.3651 87.6445 77.3651 89.3411ZM68.4431 93.5829C68.1599 92.381 68.0183 90.9671 68.0183 89.3411C68.0183 87.6445 68.1599 86.2305 68.4431 85.0994H54.6353C54.9186 86.2305 55.0602 87.6445 55.0602 89.3411C55.0602 90.9671 54.9186 92.381 54.6353 93.5829H68.4431Z" fill="#164265" />
        <path d="M34.4132 68.1326C34.6965 69.2637 34.8381 70.6776 34.8381 72.3743C34.8381 74.0003 34.6965 75.4142 34.4132 76.616C34.6965 77.7471 34.8381 79.161 34.8381 80.8577C34.8381 82.4837 34.6965 83.8976 34.4132 85.0994C34.6965 86.2305 34.8381 87.6445 34.8381 89.3411C34.8381 90.9671 34.6965 92.381 34.4132 93.5829H31.2268C31.5101 94.714 31.6517 96.1279 31.6517 97.8246C31.6517 99.4506 31.5101 100.864 31.2268 102.066C31.5101 103.197 31.6517 104.611 31.6517 106.308C31.6517 107.934 31.5101 109.348 31.2268 110.55H29.1026C29.3858 111.681 29.5274 113.095 29.5274 114.791C29.5274 116.417 29.3858 117.831 29.1026 119.033H22.7297C22.4465 117.831 22.3049 116.417 22.3049 114.791C22.3049 113.095 22.4465 111.681 22.7297 110.55H20.6055C20.3222 109.348 20.1806 107.934 20.1806 106.308C20.1806 104.611 20.3222 103.197 20.6055 102.066H14.2326C14.5159 103.197 14.6575 104.611 14.6575 106.308C14.6575 107.934 14.5159 109.348 14.2326 110.55H12.1084C12.3916 111.681 12.5332 113.095 12.5332 114.791C12.5332 116.417 12.3916 117.831 12.1084 119.033H5.73554C5.4523 117.831 5.31069 116.417 5.31069 114.791C5.31069 113.095 5.4523 111.681 5.73554 110.55H3.61127C3.32803 109.348 3.18641 107.934 3.18641 106.308C3.18641 104.611 3.32803 103.197 3.61127 102.066C3.32803 100.864 3.18641 99.4506 3.18641 97.8246C3.18641 96.1279 3.32803 94.714 3.61127 93.5829H0.424855C0.141618 92.381 0 90.9671 0 89.3411C0 87.6445 0.141618 86.2305 0.424855 85.0994C0.141618 83.8976 0 82.4837 0 80.8577C0 79.161 0.141618 77.7471 0.424855 76.616C0.141618 75.4142 0 74.0003 0 72.3743C0 70.6776 0.141618 69.2637 0.424855 68.1326C0.141618 66.9307 0 65.5168 0 63.8908C0 62.1942 0.141618 60.7803 0.424855 59.6491H8.92195C9.20519 60.7803 9.34681 62.1942 9.34681 63.8908C9.34681 65.5168 9.20519 66.9307 8.92195 68.1326C9.20519 69.2637 9.34681 70.6776 9.34681 72.3743C9.34681 74.0003 9.20519 75.4142 8.92195 76.616C9.20519 77.7471 9.34681 79.161 9.34681 80.8577C9.34681 82.4837 9.20519 83.8976 8.92195 85.0994C9.20519 86.2305 9.34681 87.6445 9.34681 89.3411C9.34681 90.9671 9.20519 92.381 8.92195 93.5829C9.20519 94.714 9.34681 96.1279 9.34681 97.8246C9.34681 99.4506 9.20519 100.864 8.92195 102.066H12.1084C11.8251 100.864 11.6835 99.4506 11.6835 97.8246C11.6835 96.1279 11.8251 94.714 12.1084 93.5829H14.2326C13.9494 92.381 13.8078 90.9671 13.8078 89.3411C13.8078 87.6445 13.9494 86.2305 14.2326 85.0994C13.9494 83.8976 13.8078 82.4837 13.8078 80.8577C13.8078 79.161 13.9494 77.7471 14.2326 76.616C13.9494 75.4142 13.8078 74.0003 13.8078 72.3743C13.8078 70.6776 13.9494 69.2637 14.2326 68.1326C13.9494 66.9307 13.8078 65.5168 13.8078 63.8908C13.8078 62.1942 13.9494 60.7803 14.2326 59.6491H20.6055C20.8887 60.7803 21.0303 62.1942 21.0303 63.8908C21.0303 65.5168 20.8887 66.9307 20.6055 68.1326C20.8887 69.2637 21.0303 70.6776 21.0303 72.3743C21.0303 74.0003 20.8887 75.4142 20.6055 76.616C20.8887 77.7471 21.0303 79.161 21.0303 80.8577C21.0303 82.4837 20.8887 83.8976 20.6055 85.0994C20.8887 86.2305 21.0303 87.6445 21.0303 89.3411C21.0303 90.9671 20.8887 92.381 20.6055 93.5829H22.7297C23.013 94.714 23.1546 96.1279 23.1546 97.8246C23.1546 99.4506 23.013 100.864 22.7297 102.066H25.9162C25.6329 100.864 25.4913 99.4506 25.4913 97.8246C25.4913 96.1279 25.6329 94.714 25.9162 93.5829C25.6329 92.381 25.4913 90.9671 25.4913 89.3411C25.4913 87.6445 25.6329 86.2305 25.9162 85.0994C25.6329 83.8976 25.4913 82.4837 25.4913 80.8577C25.4913 79.161 25.6329 77.7471 25.9162 76.616C25.6329 75.4142 25.4913 74.0003 25.4913 72.3743C25.4913 70.6776 25.6329 69.2637 25.9162 68.1326C25.6329 66.9307 25.4913 65.5168 25.4913 63.8908C25.4913 62.1942 25.6329 60.7803 25.9162 59.6491H34.4132C34.6965 60.7803 34.8381 62.1942 34.8381 63.8908C34.8381 65.5168 34.6965 66.9307 34.4132 68.1326Z" fill="#164265" />
    </svg>