<svg
   width="500"
   height="500"
   viewBox="0 0 15 15"
   fill="none"
   version="1.1"
   id="svg1"
   xmlns="http://www.w3.org/2000/svg"
   xmlns:svg="http://www.w3.org/2000/svg">
  <defs
     id="defs1" />
  <path
     d="m 7.0790831,0.32058742 c 0.132426,-0.4274499 0.709397,-0.4274499 0.841823,0 l 1.467126,4.73307598 c 0.05922,0.19116 0.229178,0.32058 0.420911,0.32058 h 4.7475799 c 0.428789,0 0.607068,0.57513 0.260159,0.8393 L 10.975811,9.138732 c -0.155087,0.11812 -0.22006,0.32755 -0.160752,0.5187 l 1.467037,4.733067 c 0.132515,0.42749 -0.334162,0.78297 -0.68107,0.51879 l -3.8408719,-2.92522 c -0.155175,-0.11812 -0.365144,-0.11812 -0.520319,0 L 3.3989634,14.909295 C 3.05209,15.173469 2.5853785,14.817995 2.7178748,14.390502 l 1.467082,-4.733067 c 0.059255,-0.19115 -0.00566,-0.40058 -0.1607873,-0.5187 L 0.18328908,6.2135464 c -0.3468646,-0.26417 -0.1685947,-0.8393 0.2601595,-0.8393 H 5.1910368 c 0.1917426,0 0.3616828,-0.12942 0.4209379,-0.32058 z"
     fill="#888888"
     id="path1"
     style="stroke-width:0.906299" />
</svg>

